<?xml version="1.0" encoding="UTF-8" standalone="no"?>
<svg
   xmlns:dc="http://purl.org/dc/elements/1.1/"
   xmlns:cc="http://creativecommons.org/ns#"
   xmlns:rdf="http://www.w3.org/1999/02/22-rdf-syntax-ns#"
   xmlns:svg="http://www.w3.org/2000/svg"
   xmlns="http://www.w3.org/2000/svg"
   xmlns:sodipodi="http://sodipodi.sourceforge.net/DTD/sodipodi-0.dtd"
   xmlns:inkscape="http://www.inkscape.org/namespaces/inkscape"
   id="Capa_1"
   enable-background="new 0 0 504.5 504.5"
   height="20pt"
   viewBox="0 0 26.276041 26.276041"
   width="20pt"
   version="1.1"
   sodipodi:docname="chore.svg"
   inkscape:version="0.92.4 5da689c313, 2019-01-14">
  <metadata
     id="metadata891">
    <rdf:RDF>
      <cc:Work
         rdf:about="">
        <dc:format>image/svg+xml</dc:format>
        <dc:type
           rdf:resource="http://purl.org/dc/dcmitype/StillImage" />
        <dc:title />
      </cc:Work>
    </rdf:RDF>
  </metadata>
  <defs
     id="defs889" />
  <sodipodi:namedview
     pagecolor="#ffffff"
     bordercolor="#666666"
     borderopacity="1"
     objecttolerance="10"
     gridtolerance="10"
     guidetolerance="10"
     inkscape:pageopacity="0"
     inkscape:pageshadow="2"
     inkscape:window-width="1920"
     inkscape:window-height="1037"
     id="namedview887"
     showgrid="false"
     units="pt"
     inkscape:zoom="13.34375"
     inkscape:cx="9.4521582"
     inkscape:cy="15.800627"
     inkscape:window-x="0"
     inkscape:window-y="0"
     inkscape:window-maximized="0"
     inkscape:current-layer="Capa_1" />
  <circle
     style="fill:#03ffab;fill-opacity:1;stroke:none;stroke-width:0.98690325;stroke-miterlimit:4;stroke-dasharray:none;stroke-dashoffset:0;stroke-opacity:1"
     id="path1564"
     cx="12.885721"
     cy="12.947257"
     r="12.294972" />
  <path
     style="fill:#03e5ab;stroke:none;stroke-width:0.98535156px;stroke-linecap:butt;stroke-linejoin:miter;stroke-opacity:1;fill-opacity:1"
     d="M 3.3156757,20.741213 C 15.951794,15.075846 24.958944,15.598 24.880622,15.598 c -0.07833,0 -0.861554,5.874228 -6.970752,8.615535 C 11.800673,26.954842 5.7175824,23.900242 3.3156757,20.741213 Z"
     id="path954"
     inkscape:connector-curvature="0" />
  <g
     transform="matrix(0.04585019,0,0,0.04585019,1.8969987,1.513064)"
     id="g946"
     style="fill:#03cdab;fill-opacity:1">
    <path
       style="fill:#03cdab;fill-opacity:1"
       inkscape:connector-curvature="0"
       id="path896"
       d="m 207.25,285 v 196.592 l -24.87,8.29 c -3.93,1.31 -6.053,5.557 -4.744,9.487 1.31,3.93 5.559,6.054 9.487,4.744 l 29.998,-10 c 3.063,-1.021 5.128,-3.887 5.128,-7.115 V 285 Z" />
    <path
       style="fill:#03cdab;fill-opacity:1"
       inkscape:connector-curvature="0"
       id="path898"
       d="m 282.25,285 v 196.592 l 24.87,8.29 c 3.93,1.31 6.053,5.557 4.744,9.487 -1.31,3.93 -5.559,6.054 -9.487,4.744 l -29.998,-10 c -3.063,-1.021 -5.128,-3.887 -5.128,-7.115 V 285 Z" />
    <path
       style="fill:#03cdab;fill-opacity:1"
       inkscape:connector-curvature="0"
       id="path900"
       d="m 109.75,177.5 c -4.136,0 -7.5,-3.364 -7.5,-7.5 h -15 c 0,12.406 10.093,22.5 22.5,22.5 h 135 v -15 z" />
    <path
       style="fill:#03cdab;fill-opacity:1"
       inkscape:connector-curvature="0"
       id="path902"
       d="m 379.75,177.5 h -135 v 15 h 135 c 4.136,0 7.5,3.364 7.5,7.5 h 15 c 0,-12.406 -10.094,-22.5 -22.5,-22.5 z" />
    <path
       style="fill:#03cdab;fill-opacity:1"
       inkscape:connector-curvature="0"
       id="path904"
       d="m 117.25,60 v 155 c 0,4.143 3.358,7.5 7.5,7.5 4.142,0 7.5,-3.357 7.5,-7.5 V 60 Z" />
    <path
       style="fill:#03cdab;fill-opacity:1"
       inkscape:connector-curvature="0"
       id="path906"
       d="m 364.75,82.5 c -4.143,0 -7.5,3.357 -7.5,7.5 v 332 h 15 V 90 c 0,-4.143 -3.357,-7.5 -7.5,-7.5 z" />
    <path
       style="fill:#03cdab;fill-opacity:1"
       inkscape:connector-curvature="0"
       id="path908"
       d="m 142.25,10 h -1.707 C 137.732,4.093 131.727,0 124.75,0 l -10,44.266 10,45.734 c 12.426,0 22.5,-10.074 22.5,-22.5 V 44.266 c 7.227,-2.152 12.5,-8.839 12.5,-16.766 0,-9.665 -7.835,-17.5 -17.5,-17.5 z" />
    <path
       style="fill:#03cdab;fill-opacity:1"
       inkscape:connector-curvature="0"
       id="path910"
       d="m 108.957,10 h -1.707 c -9.665,0 -17.5,7.835 -17.5,17.5 0,7.926 5.273,14.613 12.5,16.766 V 67.5 c 0,12.426 10.074,22.5 22.5,22.5 V 0 c -6.977,0 -12.982,4.093 -15.793,10 z" />
    <path
       style="fill:#03cdab;fill-opacity:1"
       inkscape:connector-curvature="0"
       id="path912"
       d="m 409.75,437 -30,-10 -20,25 20,15 h 30 z" />
    <path
       style="fill:#03cdab;fill-opacity:1"
       inkscape:connector-curvature="0"
       id="path914"
       d="m 319.75,427 h 60 v 40 h -60 z" />
    <path
       style="fill:#03cdab;fill-opacity:1"
       inkscape:connector-curvature="0"
       id="path916"
       d="m 312.25,467 c 0,4.143 3.357,7.5 7.5,7.5 4.143,0 7.5,-3.357 7.5,-7.5 v -40 l -15,10 z" />
    <path
       style="fill:#03cdab;fill-opacity:1"
       inkscape:connector-curvature="0"
       id="path918"
       d="m 402.25,427 v 40 c 0,4.143 3.357,7.5 7.5,7.5 4.143,0 7.5,-3.357 7.5,-7.5 v -30 z" />
    <path
       style="fill:#03cdab;fill-opacity:1"
       inkscape:connector-curvature="0"
       id="path920"
       d="m 342.25,467 c 0,4.143 3.357,7.5 7.5,7.5 4.143,0 7.5,-3.357 7.5,-7.5 v -40 h -15 z" />
    <path
       style="fill:#03cdab;fill-opacity:1"
       inkscape:connector-curvature="0"
       id="path922"
       d="m 372.25,467 c 0,4.143 3.357,7.5 7.5,7.5 4.143,0 7.5,-3.357 7.5,-7.5 v -40 h -15 z" />
    <path
       style="fill:#03cdab;fill-opacity:1"
       inkscape:connector-curvature="0"
       id="path924"
       d="m 387.25,407 h -30 l 30,30 h 30 c 0,-16.569 -13.431,-30 -30,-30 z" />
    <path
       style="fill:#03cdab;fill-opacity:1"
       inkscape:connector-curvature="0"
       id="path926"
       d="m 357.25,407 h -15 c -16.569,0 -30,13.431 -30,30 h 75 c 0,-16.569 -13.431,-30 -30,-30 z" />
    <path
       style="fill:#03cdab;fill-opacity:1"
       inkscape:connector-curvature="0"
       id="path928"
       d="m 267.25,165 h -45 l -7.5,10 -7.5,-10 h -2.5 c -11.046,0 -20,8.954 -20,20 v 30 c 0,10.685 6.036,20.007 15,25 l 90,-45 z" />
    <path
       style="fill:#03cdab;fill-opacity:1"
       inkscape:connector-curvature="0"
       id="path930"
       d="m 284.75,165 h -2.5 l -7.5,60 c 0,8.284 6.716,15 15,15 8.964,-4.993 15,-14.315 15,-25 v -30 c 0,-11.046 -8.955,-20 -20,-20 z" />
    <path
       style="fill:#03cdab;fill-opacity:1"
       inkscape:connector-curvature="0"
       id="path932"
       d="m 244.75,45 v 90 c 24.853,0 45,-20.147 45,-45 0,-24.853 -20.147,-45 -45,-45 z" />
    <path
       style="fill:#03cdab;fill-opacity:1"
       inkscape:connector-curvature="0"
       id="path934"
       d="m 259.75,90 c 0,-24.853 -6.716,-45 -15,-45 -24.853,0 -45,20.147 -45,45 0,24.853 20.147,45 45,45 8.284,0 15,-20.147 15,-45 z" />
    <path
       style="fill:#03cdab;fill-opacity:1"
       inkscape:connector-curvature="0"
       id="path936"
       d="m 94.75,177.5 c -4.142,0 -7.5,-3.357 -7.5,-7.5 0,-12.406 10.093,-22.5 22.5,-22.5 h 15 c 4.142,0 7.5,3.357 7.5,7.5 0,4.143 -3.358,7.5 -7.5,7.5 h -15 c -4.136,0 -7.5,3.364 -7.5,7.5 0,4.143 -3.358,7.5 -7.5,7.5 z" />
    <path
       style="fill:#03cdab;fill-opacity:1"
       inkscape:connector-curvature="0"
       id="path938"
       d="m 379.75,222.5 h -15 c -4.143,0 -7.5,-3.357 -7.5,-7.5 0,-4.143 3.357,-7.5 7.5,-7.5 h 15 c 4.136,0 7.5,-3.364 7.5,-7.5 0,-4.143 3.357,-7.5 7.5,-7.5 4.143,0 7.5,3.357 7.5,7.5 0,12.406 -10.094,22.5 -22.5,22.5 z" />
    <path
       style="fill:#03cdab;fill-opacity:1"
       inkscape:connector-curvature="0"
       id="path940"
       d="M 274.75,232.5 V 195 h -15 l -30,65 30,85 h 30 v -97.5 c -8.284,0 -15,-6.716 -15,-15 z" />
    <path
       style="fill:#03cdab;fill-opacity:1"
       inkscape:connector-curvature="0"
       id="path942"
       d="m 222.25,195 v -30 h -15 v 67.5 c 0,4.136 -3.364,7.5 -7.5,7.5 v 105 h 60 V 195 Z" />
    <path
       style="fill:#03cdab;fill-opacity:1"
       inkscape:connector-curvature="0"
       id="path944"
       d="m 289.75,255 c -12.406,0 -22.5,-10.094 -22.5,-22.5 V 165 h 15 v 67.5 c 0,4.136 3.364,7.5 7.5,7.5 z" />
  </g>
  <g
     id="g884"
     transform="matrix(0.04585019,0,0,0.04585019,1.2092458,1.1691876)">
    <path
       d="m 207.25,285 v 196.592 l -24.87,8.29 c -3.93,1.31 -6.053,5.557 -4.744,9.487 1.31,3.93 5.559,6.054 9.487,4.744 l 29.998,-10 c 3.063,-1.021 5.128,-3.887 5.128,-7.115 V 285 Z"
       id="path834"
       inkscape:connector-curvature="0"
       style="fill:#4f4f4f" />
    <path
       d="m 282.25,285 v 196.592 l 24.87,8.29 c 3.93,1.31 6.053,5.557 4.744,9.487 -1.31,3.93 -5.559,6.054 -9.487,4.744 l -29.998,-10 c -3.063,-1.021 -5.128,-3.887 -5.128,-7.115 V 285 Z"
       id="path836"
       inkscape:connector-curvature="0"
       style="fill:#353535" />
    <path
       d="m 109.75,177.5 c -4.136,0 -7.5,-3.364 -7.5,-7.5 h -15 c 0,12.406 10.093,22.5 22.5,22.5 h 135 v -15 z"
       id="path838"
       inkscape:connector-curvature="0"
       style="fill:#ffa754" />
    <path
       d="m 379.75,177.5 h -135 v 15 h 135 c 4.136,0 7.5,3.364 7.5,7.5 h 15 c 0,-12.406 -10.094,-22.5 -22.5,-22.5 z"
       id="path840"
       inkscape:connector-curvature="0"
       style="fill:#ff8646" />
    <path
       d="m 117.25,60 v 155 c 0,4.143 3.358,7.5 7.5,7.5 4.142,0 7.5,-3.357 7.5,-7.5 V 60 Z"
       id="path842"
       inkscape:connector-curvature="0"
       style="fill:#ff6337" />
    <path
       d="m 364.75,82.5 c -4.143,0 -7.5,3.357 -7.5,7.5 v 332 h 15 V 90 c 0,-4.143 -3.357,-7.5 -7.5,-7.5 z"
       id="path844"
       inkscape:connector-curvature="0"
       style="fill:#ff1b7c" />
    <path
       d="m 142.25,10 h -1.707 C 137.732,4.093 131.727,0 124.75,0 l -10,44.266 10,45.734 c 12.426,0 22.5,-10.074 22.5,-22.5 V 44.266 c 7.227,-2.152 12.5,-8.839 12.5,-16.766 0,-9.665 -7.835,-17.5 -17.5,-17.5 z"
       id="path846"
       inkscape:connector-curvature="0"
       style="fill:#808080" />
    <path
       d="m 108.957,10 h -1.707 c -9.665,0 -17.5,7.835 -17.5,17.5 0,7.926 5.273,14.613 12.5,16.766 V 67.5 c 0,12.426 10.074,22.5 22.5,22.5 V 0 c -6.977,0 -12.982,4.093 -15.793,10 z"
       id="path848"
       inkscape:connector-curvature="0"
       style="fill:#999999" />
    <path
       d="m 409.75,437 -30,-10 -20,25 20,15 h 30 z"
       id="path850"
       inkscape:connector-curvature="0"
       style="fill:#ffa754" />
    <path
       d="m 319.75,427 h 60 v 40 h -60 z"
       id="path852"
       inkscape:connector-curvature="0"
       style="fill:#ffcb63" />
    <path
       d="m 312.25,467 c 0,4.143 3.357,7.5 7.5,7.5 4.143,0 7.5,-3.357 7.5,-7.5 v -40 l -15,10 z"
       id="path854"
       inkscape:connector-curvature="0"
       style="fill:#ffa754" />
    <path
       d="m 402.25,427 v 40 c 0,4.143 3.357,7.5 7.5,7.5 4.143,0 7.5,-3.357 7.5,-7.5 v -30 z"
       id="path856"
       inkscape:connector-curvature="0"
       style="fill:#ff8646" />
    <path
       d="m 342.25,467 c 0,4.143 3.357,7.5 7.5,7.5 4.143,0 7.5,-3.357 7.5,-7.5 v -40 h -15 z"
       id="path858"
       inkscape:connector-curvature="0"
       style="fill:#ffa754" />
    <path
       d="m 372.25,467 c 0,4.143 3.357,7.5 7.5,7.5 4.143,0 7.5,-3.357 7.5,-7.5 v -40 h -15 z"
       id="path860"
       inkscape:connector-curvature="0"
       style="fill:#ff8646" />
    <path
       d="m 387.25,407 h -30 l 30,30 h 30 c 0,-16.569 -13.431,-30 -30,-30 z"
       id="path862"
       inkscape:connector-curvature="0"
       style="fill:#ff1b7c" />
    <path
       d="m 357.25,407 h -15 c -16.569,0 -30,13.431 -30,30 h 75 c 0,-16.569 -13.431,-30 -30,-30 z"
       id="path864"
       inkscape:connector-curvature="0"
       style="fill:#ff4996" />
    <path
       d="m 267.25,165 h -45 l -7.5,10 -7.5,-10 h -2.5 c -11.046,0 -20,8.954 -20,20 v 30 c 0,10.685 6.036,20.007 15,25 l 90,-45 z"
       id="path866"
       inkscape:connector-curvature="0"
       style="fill:#ffa754" />
    <path
       d="m 284.75,165 h -2.5 l -7.5,60 c 0,8.284 6.716,15 15,15 8.964,-4.993 15,-14.315 15,-25 v -30 c 0,-11.046 -8.955,-20 -20,-20 z"
       id="path868"
       inkscape:connector-curvature="0"
       style="fill:#ff8646" />
    <path
       d="m 244.75,45 v 90 c 24.853,0 45,-20.147 45,-45 0,-24.853 -20.147,-45 -45,-45 z"
       id="path870"
       inkscape:connector-curvature="0"
       style="fill:#ffb4a9" />
    <path
       d="m 259.75,90 c 0,-24.853 -6.716,-45 -15,-45 -24.853,0 -45,20.147 -45,45 0,24.853 20.147,45 45,45 8.284,0 15,-20.147 15,-45 z"
       id="path872"
       inkscape:connector-curvature="0"
       style="fill:#ffd9d4" />
    <path
       d="m 94.75,177.5 c -4.142,0 -7.5,-3.357 -7.5,-7.5 0,-12.406 10.093,-22.5 22.5,-22.5 h 15 c 4.142,0 7.5,3.357 7.5,7.5 0,4.143 -3.358,7.5 -7.5,7.5 h -15 c -4.136,0 -7.5,3.364 -7.5,7.5 0,4.143 -3.358,7.5 -7.5,7.5 z"
       id="path874"
       inkscape:connector-curvature="0"
       style="fill:#ffa754" />
    <path
       d="m 379.75,222.5 h -15 c -4.143,0 -7.5,-3.357 -7.5,-7.5 0,-4.143 3.357,-7.5 7.5,-7.5 h 15 c 4.136,0 7.5,-3.364 7.5,-7.5 0,-4.143 3.357,-7.5 7.5,-7.5 4.143,0 7.5,3.357 7.5,7.5 0,12.406 -10.094,22.5 -22.5,22.5 z"
       id="path876"
       inkscape:connector-curvature="0"
       style="fill:#ff8646" />
    <path
       d="M 274.75,232.5 V 195 h -15 l -30,65 30,85 h 30 v -97.5 c -8.284,0 -15,-6.716 -15,-15 z"
       id="path878"
       inkscape:connector-curvature="0"
       style="fill:#ffe2a8" />
    <path
       d="m 222.25,195 v -30 h -15 v 67.5 c 0,4.136 -3.364,7.5 -7.5,7.5 v 105 h 60 V 195 Z"
       id="path880"
       inkscape:connector-curvature="0"
       style="fill:#fff0d3" />
    <path
       d="m 289.75,255 c -12.406,0 -22.5,-10.094 -22.5,-22.5 V 165 h 15 v 67.5 c 0,4.136 3.364,7.5 7.5,7.5 z"
       id="path882"
       inkscape:connector-curvature="0"
       style="fill:#ffe2a8" />
  </g>
</svg>
