<?xml version="1.0" encoding="UTF-8" standalone="no"?>
<svg
   xmlns:dc="http://purl.org/dc/elements/1.1/"
   xmlns:cc="http://creativecommons.org/ns#"
   xmlns:rdf="http://www.w3.org/1999/02/22-rdf-syntax-ns#"
   xmlns:svg="http://www.w3.org/2000/svg"
   xmlns="http://www.w3.org/2000/svg"
   xmlns:sodipodi="http://sodipodi.sourceforge.net/DTD/sodipodi-0.dtd"
   xmlns:inkscape="http://www.inkscape.org/namespaces/inkscape"
   id="Flat"
   height="20pt"
   viewBox="0 0 26.666667 26.666667"
   width="20pt"
   version="1.1"
   sodipodi:docname="exam.svg"
   inkscape:version="0.92.4 5da689c313, 2019-01-14">
  <metadata
     id="metadata990">
    <rdf:RDF>
      <cc:Work
         rdf:about="">
        <dc:format>image/svg+xml</dc:format>
        <dc:type
           rdf:resource="http://purl.org/dc/dcmitype/StillImage" />
        <dc:title></dc:title>
      </cc:Work>
    </rdf:RDF>
  </metadata>
  <defs
     id="defs988" />
  <sodipodi:namedview
     pagecolor="#ffffff"
     bordercolor="#666666"
     borderopacity="1"
     objecttolerance="10"
     gridtolerance="10"
     guidetolerance="10"
     inkscape:pageopacity="0"
     inkscape:pageshadow="2"
     inkscape:window-width="1920"
     inkscape:window-height="1037"
     id="namedview986"
     showgrid="false"
     units="pt"
     inkscape:zoom="18.870912"
     inkscape:cx="24.557332"
     inkscape:cy="14.154045"
     inkscape:window-x="0"
     inkscape:window-y="0"
     inkscape:window-maximized="0"
     inkscape:current-layer="Flat" />
  <g
     id="g1022"
     transform="matrix(0.05608988,0,0,0.05608988,-1.2453731,26.239371)">
    <path
       style="fill:#e9eef2"
       inkscape:connector-curvature="0"
       id="path925"
       d="M 24,-461.33333 H 376 V 2.6666667 H 24 Z" />
    <path
       style="fill:#f7b030"
       inkscape:connector-curvature="0"
       id="path927"
       d="m 64,-421.33333 h 272 v 64 H 64 Z" />
    <path
       style="fill:#eb423f"
       inkscape:connector-curvature="0"
       id="path929"
       d="m 64,-261.33333 h 32 v 32 H 64 Z" />
    <path
       style="fill:#3dc285"
       inkscape:connector-curvature="0"
       id="path931"
       d="m 224,-261.33333 h 32 v 32 h -32 z" />
    <path
       style="fill:#3dc285"
       inkscape:connector-curvature="0"
       id="path933"
       d="m 64,-133.33333 h 32 v 32 H 64 Z" />
    <path
       style="fill:#eb423f"
       inkscape:connector-curvature="0"
       id="path935"
       d="m 224,-133.33333 h 32 v 32 h -32 z" />
    <g
       transform="translate(0,-485.33333)"
       style="fill:#c3c6c7"
       id="g971">
      <circle
         id="circle937"
         r="8"
         cy="160"
         cx="64" />
      <path
         inkscape:connector-curvature="0"
         id="path939"
         d="M 336,168 H 96 a 8,8 0 0 1 0,-16 h 240 a 8,8 0 0 1 0,16 z" />
      <path
         inkscape:connector-curvature="0"
         id="path941"
         d="m 176,232 h -48 a 8,8 0 0 1 0,-16 h 48 a 8,8 0 0 1 0,16 z" />
      <path
         inkscape:connector-curvature="0"
         id="path943"
         d="m 176,264 h -48 a 8,8 0 0 1 0,-16 h 48 a 8,8 0 0 1 0,16 z" />
      <path
         inkscape:connector-curvature="0"
         id="path945"
         d="m 336,232 h -48 a 8,8 0 0 1 0,-16 h 48 a 8,8 0 0 1 0,16 z" />
      <path
         inkscape:connector-curvature="0"
         id="path947"
         d="m 336,264 h -48 a 8,8 0 0 1 0,-16 h 48 a 8,8 0 0 1 0,16 z" />
      <path
         inkscape:connector-curvature="0"
         id="path949"
         d="m 176,360 h -48 a 8,8 0 0 1 0,-16 h 48 a 8,8 0 0 1 0,16 z" />
      <path
         inkscape:connector-curvature="0"
         id="path951"
         d="m 176,392 h -48 a 8,8 0 0 1 0,-16 h 48 a 8,8 0 0 1 0,16 z" />
      <path
         inkscape:connector-curvature="0"
         id="path953"
         d="m 336,360 h -48 a 8,8 0 0 1 0,-16 h 48 a 8,8 0 0 1 0,16 z" />
      <path
         inkscape:connector-curvature="0"
         id="path955"
         d="m 336,392 h -48 a 8,8 0 0 1 0,-16 h 48 a 8,8 0 0 1 0,16 z" />
      <path
         inkscape:connector-curvature="0"
         id="path957"
         d="M 336,200 H 64 a 8,8 0 0 1 0,-16 h 272 a 8,8 0 0 1 0,16 z" />
      <circle
         id="circle959"
         r="8"
         cy="288"
         cx="64" />
      <path
         inkscape:connector-curvature="0"
         id="path961"
         d="M 336,296 H 96 a 8,8 0 0 1 0,-16 h 240 a 8,8 0 0 1 0,16 z" />
      <path
         inkscape:connector-curvature="0"
         id="path963"
         d="M 336,328 H 64 a 8,8 0 0 1 0,-16 h 272 a 8,8 0 0 1 0,16 z" />
      <circle
         id="circle965"
         r="8"
         cy="416"
         cx="64" />
      <path
         inkscape:connector-curvature="0"
         id="path967"
         d="M 336,424 H 96 a 8,8 0 0 1 0,-16 h 240 a 8,8 0 0 1 0,16 z" />
      <path
         inkscape:connector-curvature="0"
         id="path969"
         d="M 336,456 H 64 a 8,8 0 0 1 0,-16 h 272 a 8,8 0 0 1 0,16 z" />
    </g>
    <path
       style="fill:#d13330"
       inkscape:connector-curvature="0"
       id="path973"
       d="m 416,-189.33333 h 32 v 127.999997 h -32 z" />
    <path
       style="fill:#f7b030"
       inkscape:connector-curvature="0"
       id="path975"
       d="M 432,2.6666667 416,-61.333333 h 32 z" />
    <path
       style="fill:#f7b030"
       inkscape:connector-curvature="0"
       id="path977"
       d="m 416,-341.33333 h 56 a 24.027,24.027 0 0 1 24,24 v 80 a 8,8 0 0 1 -16,0 v -80 a 8.009,8.009 0 0 0 -8,-8 h -56 z" />
    <path
       style="fill:#f7b030"
       inkscape:connector-curvature="0"
       id="path979"
       d="m 416,-189.33333 h 32 v 32 h -32 z" />
    <path
       style="fill:#d13330"
       inkscape:connector-curvature="0"
       id="path981"
       d="m 456,-189.33333 h -48 c 0,-56 4.268,-121.822 8,-161.5 0.773,-8.218 6.252,-14.5 14.506,-14.5 h 1.565 a 16,16 0 0 1 15.929,14.5 c 3.732,39.678 8,105.5 8,161.5 z" />
    <path
       style="fill:#f7b030"
       inkscape:connector-curvature="0"
       id="path983"
       d="m 449.53,-333.33333 h -35.06 c 0.51,-6.26 1.03,-12.12 1.53,-17.5 0.77,-8.22 6.25,-14.5 14.51,-14.5 h 1.56 a 15.994,15.994 0 0 1 15.93,14.5 c 0.5,5.38 1.02,11.24 1.53,17.5 z" />
  </g>
</svg>
