<?xml version="1.0" encoding="UTF-8" standalone="no"?>
<!-- Generator: Adobe Illustrator 19.0.0, SVG Export Plug-In . SVG Version: 6.00 Build 0)  -->

<svg
   xmlns:dc="http://purl.org/dc/elements/1.1/"
   xmlns:cc="http://creativecommons.org/ns#"
   xmlns:rdf="http://www.w3.org/1999/02/22-rdf-syntax-ns#"
   xmlns:svg="http://www.w3.org/2000/svg"
   xmlns="http://www.w3.org/2000/svg"
   xmlns:sodipodi="http://sodipodi.sourceforge.net/DTD/sodipodi-0.dtd"
   xmlns:inkscape="http://www.inkscape.org/namespaces/inkscape"
   version="1.1"
   id="Capa_1"
   x="0px"
   y="0px"
   viewBox="0 0 26.666667 26.666667"
   xml:space="preserve"
   sodipodi:docname="hammer.svg"
   width="20pt"
   height="20pt"
   inkscape:version="0.92.4 5da689c313, 2019-01-14"><metadata
   id="metadata888"><rdf:RDF><cc:Work
       rdf:about=""><dc:format>image/svg+xml</dc:format><dc:type
         rdf:resource="http://purl.org/dc/dcmitype/StillImage" /><dc:title></dc:title></cc:Work></rdf:RDF></metadata><defs
   id="defs886" /><sodipodi:namedview
   pagecolor="#ffffff"
   bordercolor="#666666"
   borderopacity="1"
   objecttolerance="10"
   gridtolerance="10"
   guidetolerance="10"
   inkscape:pageopacity="0"
   inkscape:pageshadow="2"
   inkscape:window-width="1920"
   inkscape:window-height="1037"
   id="namedview884"
   showgrid="false"
   units="pt"
   inkscape:zoom="18.870912"
   inkscape:cx="28.461682"
   inkscape:cy="13.562308"
   inkscape:window-x="0"
   inkscape:window-y="0"
   inkscape:window-maximized="0"
   inkscape:current-layer="Capa_1" />





















<g
   id="g912"
   transform="matrix(0.05201609,0,0,0.05201609,0.0537026,25.296518)"><path
     inkscape:connector-curvature="0"
     id="path839"
     d="M 89.37,9.3836667 271.59,-172.83633 c 7.428,-7.428 7.428,-19.471 0,-26.899 l -46.901,-46.901 c -7.428,-7.428 -19.471,-7.428 -26.899,0 L 15.568,-64.417333 c -7.428,7.428 -7.428,19.471 0,26.899 L 62.469,9.3826667 c 7.429,7.4290003 19.473,7.4290003 26.901,10e-4 z"
     style="fill:#e09248" /><rect
     id="rect841"
     height="70.826324"
     width="123.00182"
     style="fill:#d7d7e6;stroke-width:0.9999904"
     transform="rotate(-45)"
     y="-17.774776"
     x="333.28116" /><path
     inkscape:connector-curvature="0"
     id="path843"
     d="m 229.689,-399.78133 -21.635,-21.635 25.809,-25.809 c 35.239,-35.239 92.373,-35.239 127.612,0 v 0 l 80.391,80.391 -7.908,14.497 16.047,16.047 17.718,-4.685 34.264,34.264 -70.506,70.506 -34.264,-34.264 4.685,-17.718 -16.047,-16.047 -25.699,19.109 -50.08,-50.08 v 0 c 11.646,-11.646 11.646,-30.526 0,-42.172 l -22.403,-22.403 c -16.011,-16.013 -41.972,-16.013 -57.984,-0.001 z"
     style="fill:#878791" /><path
     inkscape:connector-curvature="0"
     id="path845"
     d="m 114.219,-153.05733 c 2.633,0 5.216,-1.071 7.078,-2.933 1.861,-1.862 2.933,-4.445 2.933,-7.078 0,-2.633 -1.071,-5.216 -2.933,-7.078 -1.862,-1.862 -4.445,-2.933 -7.078,-2.933 -2.643,0 -5.216,1.071 -7.078,2.933 -1.861,1.862 -2.933,4.445 -2.933,7.078 0,2.633 1.071,5.216 2.933,7.078 1.862,1.862 4.445,2.933 7.078,2.933 z" /><path
     inkscape:connector-curvature="0"
     id="path847"
     d="m 123.659,-82.480333 c 0,2.633 1.071,5.216 2.943,7.078 1.861,1.862 4.435,2.933 7.077,2.933 2.634,0 5.206,-1.071 7.078,-2.933 1.862,-1.862 2.923,-4.445 2.923,-7.078 0,-2.633 -1.061,-5.216 -2.923,-7.078 -1.862,-1.862 -4.444,-2.933 -7.078,-2.933 -2.643,0 -5.226,1.071 -7.077,2.933 -1.872,1.862 -2.943,4.446 -2.943,7.078 z" /><path
     inkscape:connector-curvature="0"
     id="path849"
     d="m 146.939,-126.08933 51.534,-51.533 c 3.909,-3.909 3.909,-10.248 0,-14.157 -3.908,-3.909 -10.245,-3.909 -14.158,0 l -51.534,51.533 c -3.909,3.909 -3.909,10.248 0,14.157 1.955,1.955 4.517,2.932 7.079,2.932 2.561,0 5.124,-0.978 7.079,-2.932 z" /><path
     inkscape:connector-curvature="0"
     id="path851"
     d="m 509.068,-313.78933 -34.264,-34.265 c -2.522,-2.521 -6.189,-3.509 -9.638,-2.6 l -12.153,3.214 -6.679,-6.679 4.321,-7.921 c 2.126,-3.899 1.431,-8.733 -1.71,-11.873 l -80.391,-80.391 c -39.089,-39.087 -102.684,-39.085 -141.771,0 l -25.809,25.809 c -1.877,1.877 -2.932,4.424 -2.932,7.079 0,2.655 1.055,5.202 2.932,7.079 l 21.635,21.635 c 3.91,3.909 10.247,3.908 14.158,0 5.853,-5.854 13.636,-9.078 21.914,-9.078 8.279,0 16.062,3.224 21.915,9.078 l 22.404,22.403 c 7.723,7.722 7.724,20.288 0.002,28.012 -0.002,0 -0.002,0 -0.002,0 l -81.827,81.827 c -10.273,-3.724 -22.241,-1.482 -30.464,6.741 l -59.399,59.403 c -3.909,3.909 -3.909,10.248 0,14.157 3.91,3.909 10.247,3.909 14.158,0 l 59.4,-59.4 c 1.701,-1.702 3.964,-2.639 6.371,-2.639 2.406,0 4.669,0.937 6.37,2.639 l 29.493,29.493 -38.304,38.305 c -3.909,3.909 -3.909,10.248 0,14.157 1.955,1.955 4.517,2.932 7.079,2.932 2.562,0 5.124,-0.978 7.079,-2.932 l 38.304,-38.304 3.251,3.251 c 1.702,1.702 2.64,3.964 2.64,6.371 0,2.407 -0.938,4.669 -2.64,6.371 L 82.291,2.3046667 c -1.701,1.702 -3.964,2.639 -6.371,2.639 -2.406,0 -4.669,-0.937 -6.37,-2.639 L 66.299,-0.94633333 118.115,-52.762333 c 3.909,-3.909 3.909,-10.248 0,-14.158 -3.909,-3.908 -10.246,-3.908 -14.158,0 l -51.816,51.816 -29.493,-29.493 c -3.513,-3.513 -3.513,-9.229 0,-12.742 l 74.039,-74.038997 c 3.909,-3.909 3.909,-10.248 0,-14.157 -3.909,-3.909 -10.248,-3.909 -14.158,0 L 8.49,-71.496333 c -11.319,11.319 -11.319,29.737 0,41.057 l 46.902,46.902 c 5.66,5.66 13.093,8.49 20.529,8.489 7.433,0 14.869,-2.83 20.528,-8.489 l 182.22,-182.219997 c 8.223,-8.223 10.466,-20.191 6.741,-30.464 l 81.312,-81.312 18.169,-13.511 5.862,5.862 -3.213,12.152 c -0.911,3.446 0.079,7.117 2.6,9.637 l 34.265,34.265 c 1.878,1.877 4.424,2.932 7.079,2.932 2.655,0 5.201,-1.055 7.079,-2.932 l 70.506,-70.506 c 3.908,-3.907 3.908,-10.245 -0.001,-14.155 z m -235.89,101.485 -35.921,-35.921 72.821,-72.821 35.921,35.921 z m 158.305,-38.058 -23.115,-23.115 3.214,-12.152 c 0.911,-3.446 -0.079,-7.117 -2.6,-9.637 l -16.047,-16.048 c -3.514,-3.511 -9.07,-3.918 -13.052,-0.954 l -18.759,13.949 -37.788,-37.787 c 8.969,-15.263 6.909,-35.263 -6.178,-48.35 l -22.404,-22.403 c -17.468,-17.468 -44.555,-19.596 -64.368,-6.382 l -8.174,-8.175 18.73,-18.73 c 31.277,-31.279 82.174,-31.281 113.455,0 l 75.095,75.094 -4.321,7.921 c -2.126,3.899 -1.431,8.733 1.71,11.872 l 16.046,16.047 c 2.521,2.521 6.19,3.511 9.638,2.6 l 12.153,-3.214 23.114,23.114 z" /><g
     transform="translate(0,-485.33333)"
     id="g853">
</g><g
     transform="translate(0,-485.33333)"
     id="g855">
</g><g
     transform="translate(0,-485.33333)"
     id="g857">
</g><g
     transform="translate(0,-485.33333)"
     id="g859">
</g><g
     transform="translate(0,-485.33333)"
     id="g861">
</g><g
     transform="translate(0,-485.33333)"
     id="g863">
</g><g
     transform="translate(0,-485.33333)"
     id="g865">
</g><g
     transform="translate(0,-485.33333)"
     id="g867">
</g><g
     transform="translate(0,-485.33333)"
     id="g869">
</g><g
     transform="translate(0,-485.33333)"
     id="g871">
</g><g
     transform="translate(0,-485.33333)"
     id="g873">
</g><g
     transform="translate(0,-485.33333)"
     id="g875">
</g><g
     transform="translate(0,-485.33333)"
     id="g877">
</g><g
     transform="translate(0,-485.33333)"
     id="g879">
</g><g
     transform="translate(0,-485.33333)"
     id="g881">
</g></g>
</svg>