<?xml version="1.0" encoding="UTF-8" standalone="no"?>
<!-- Generator: Adobe Illustrator 19.0.0, SVG Export Plug-In . SVG Version: 6.00 Build 0)  -->

<svg
   xmlns:dc="http://purl.org/dc/elements/1.1/"
   xmlns:cc="http://creativecommons.org/ns#"
   xmlns:rdf="http://www.w3.org/1999/02/22-rdf-syntax-ns#"
   xmlns:svg="http://www.w3.org/2000/svg"
   xmlns="http://www.w3.org/2000/svg"
   xmlns:sodipodi="http://sodipodi.sourceforge.net/DTD/sodipodi-0.dtd"
   xmlns:inkscape="http://www.inkscape.org/namespaces/inkscape"
   version="1.1"
   id="Capa_1"
   x="0px"
   y="0px"
   viewBox="0 0 26.666667 26.666667"
   xml:space="preserve"
   sodipodi:docname="money.svg"
   width="20pt"
   height="20pt"
   inkscape:version="0.92.4 5da689c313, 2019-01-14"><metadata
   id="metadata1145"><rdf:RDF><cc:Work
       rdf:about=""><dc:format>image/svg+xml</dc:format><dc:type
         rdf:resource="http://purl.org/dc/dcmitype/StillImage" /><dc:title></dc:title></cc:Work></rdf:RDF></metadata><defs
   id="defs1143" /><sodipodi:namedview
   pagecolor="#ffffff"
   bordercolor="#666666"
   borderopacity="1"
   objecttolerance="10"
   gridtolerance="10"
   guidetolerance="10"
   inkscape:pageopacity="0"
   inkscape:pageshadow="2"
   inkscape:window-width="1920"
   inkscape:window-height="1037"
   id="namedview1141"
   showgrid="false"
   units="pt"
   inkscape:zoom="12.589355"
   inkscape:cx="9.1503867"
   inkscape:cy="13.978178"
   inkscape:window-x="0"
   inkscape:window-y="0"
   inkscape:window-maximized="0"
   inkscape:current-layer="Capa_1" />
<path
   style="fill:#b6fa4c;stroke-width:0.04845235"
   d="M 21.935118,16.298177 H 1.7900364 c -0.5060363,0 -0.91628234,-0.410245 -0.91628234,-0.916282 V 5.2990585 c 0,-0.5060364 0.41024604,-0.9162822 0.91628234,-0.9162822 H 21.935118 c 0.506036,0 0.916282,0.4102458 0.916282,0.9162822 V 15.381895 c 0,0.506037 -0.410246,0.916282 -0.916282,0.916282 z"
   id="path1086"
   inkscape:connector-curvature="0" />
<path
   style="fill:#a8e83a;stroke-width:0.04845235"
   d="m 21.935118,4.3827763 h -2.300373 c 0.506037,0 0.916283,0.4102458 0.916283,0.9162822 V 15.381895 c 0,0.506037 -0.410246,0.916282 -0.916283,0.916282 h 2.300373 c 0.506036,0 0.916282,-0.410245 0.916282,-0.916282 V 5.2990585 c 0,-0.5060364 -0.410246,-0.9162822 -0.916282,-0.9162822 z"
   id="path1088"
   inkscape:connector-curvature="0" />
<path
   style="fill:#77dd00;stroke-width:0.04845235"
   d="M 19.871483,5.4170885 H 3.8536704 c -0.124571,0 -0.2383372,0.073212 -0.2874679,0.1877045 C 3.2816419,6.2684441 2.7528815,6.802341 2.0926213,7.0932004 1.9797274,7.1429146 1.9080178,7.255952 1.9080178,7.3793117 V 13.30169 c 0,0.123361 0.07171,0.236351 0.1846035,0.286111 0.6602602,0.290811 1.1890206,0.824756 1.4735812,1.488408 0.049082,0.114494 0.1628484,0.187705 0.2874679,0.187705 H 19.871435 c 0.124571,0 0.238337,-0.07321 0.287467,-0.187705 0.284562,-0.663652 0.813321,-1.197548 1.473582,-1.488408 0.112894,-0.04971 0.184604,-0.16275 0.184604,-0.286111 V 7.3792633 c 0,-0.1233597 -0.07171,-0.2363511 -0.184604,-0.2861113 C 20.972223,6.802341 20.443464,6.2683965 20.158902,5.6047443 20.109821,5.4902999 19.996055,5.4170885 19.871483,5.4170885 Z"
   id="path1090"
   inkscape:connector-curvature="0" />
<path
   style="fill:#73cc00;stroke-width:0.04845235"
   d="M 21.632484,7.0932004 C 20.972223,6.8023894 20.443464,6.2684441 20.158902,5.604793 20.109824,5.4902999 19.996055,5.4170885 19.871483,5.4170885 h -1.811245 c 0.302101,0.5252233 0.765838,0.9455955 1.324299,1.1915889 0.112894,0.049714 0.184604,0.1627509 0.184604,0.2861105 v 5.9223781 c 0,0.123361 -0.07171,0.236351 -0.184604,0.286112 -0.66026,0.290811 -1.18902,0.824756 -1.473581,1.488408 -0.04908,0.114493 -0.162848,0.187704 -0.287468,0.187704 H 3.4169694 c 0.055041,0.09574 0.1053838,0.194537 0.1492816,0.296819 0.049082,0.114494 0.1628484,0.187705 0.2874194,0.187705 H 19.871483 c 0.124572,0 0.238338,-0.07321 0.287419,-0.187705 0.284562,-0.663652 0.813321,-1.197548 1.473582,-1.488408 0.112894,-0.04971 0.184604,-0.16275 0.184604,-0.286111 V 7.3793117 c 0,-0.1234081 -0.07171,-0.2363995 -0.184604,-0.2861113 z"
   id="path1092"
   inkscape:connector-curvature="0" />
<circle
   style="fill:#b6fa4c;stroke-width:0.04845235"
   cx="11.862747"
   cy="10.340377"
   r="3.7206557"
   id="circle1094" />
<path
   style="fill:#73cc00;stroke-width:0.04845235"
   d="m 11.755037,12.660762 c -0.808186,-0.01304 -1.355649,-0.449734 -1.355649,-0.769084 0,-0.156452 0.136879,-0.371532 0.299824,-0.371532 0.21508,0 0.391059,0.456227 1.055825,0.508362 v -1.531627 c -0.586565,-0.208588 -1.238345,-0.443194 -1.238345,-1.2774457 0,-0.821219 0.619172,-1.1471095 1.238345,-1.212278 v -0.189013 c 0,-0.078202 0.0782,-0.1499113 0.189012,-0.1499113 0.09778,0 0.195506,0.071711 0.195506,0.1499113 v 0.1759791 c 0.443194,0.013035 1.068907,0.1499114 1.068907,0.4692619 0,0.123843 -0.09124,0.371483 -0.28679,0.371483 -0.156404,0 -0.325841,-0.208587 -0.782117,-0.241147 v 1.323088 c 0.567038,0.2085877 1.186211,0.4953277 1.186211,1.3817637 0,0.801693 -0.482296,1.244887 -1.186211,1.342615 v 0.221573 c 0,0.0782 -0.09778,0.149911 -0.195506,0.149911 -0.11081,0 -0.189012,-0.07171 -0.189012,-0.149911 z m 0.0391,-2.8677967 v -1.18621 c -0.364992,0.04559 -0.625713,0.208538 -0.625713,0.547463 4.8e-5,0.371532 0.280296,0.50841 0.625713,0.638747 z M 12.100453,10.6403 v 1.375223 c 0.351958,-0.06517 0.573531,-0.273756 0.573531,-0.64524 4.8e-5,-0.410634 -0.254133,-0.593154 -0.573531,-0.729983 z"
   id="path1096"
   inkscape:connector-curvature="0" />
<path
   style="fill:#b6fa4c;stroke-width:0.04845235"
   d="M 24.765074,21.901013 H 4.6199927 c -0.5060363,0 -0.9162824,-0.410246 -0.9162824,-0.916282 V 10.901893 c 0,-0.506035 0.4102461,-0.9162817 0.9162824,-0.9162817 H 24.765074 c 0.506036,0 0.916282,0.4102467 0.916282,0.9162817 v 10.082838 c 0,0.506036 -0.410246,0.916282 -0.916282,0.916282 z"
   id="path1098"
   inkscape:connector-curvature="0" />
<path
   style="fill:#a8e83a;stroke-width:0.04845235"
   d="m 24.765074,9.9856113 h -1.394459 v 0 h -0.905962 c 0.506037,0 0.916283,0.4102467 0.916283,0.9162817 v 9.808016 c -0.126267,0.355011 -0.464271,0.609676 -0.862549,0.609676 H 3.7677158 c 0.1338255,0.340232 0.4645128,0.581428 0.8522284,0.581428 h 17.8447578 -4.9e-5 2.300372 c 0.402688,0 0.743889,-0.260141 0.866813,-0.621256 0.0073,-0.02137 0.01352,-0.04316 0.01923,-0.06522 0.01904,-0.07355 0.03023,-0.1503 0.03023,-0.22981 v 0 -10.082838 0 c 4.8e-5,-0.506035 -0.410199,-0.9162817 -0.916234,-0.9162817 z"
   id="path1100"
   inkscape:connector-curvature="0" />
<path
   style="fill:#77dd00;stroke-width:0.04845235"
   d="M 22.701439,11.019924 H 6.6836267 c -0.1245711,0 -0.2383372,0.07321 -0.2874679,0.187704 -0.2845606,0.663653 -0.8133211,1.197549 -1.4735812,1.488408 -0.112894,0.04971 -0.1846035,0.162751 -0.1846035,0.286111 v 5.922379 c 0,0.12336 0.07171,0.23635 0.1846035,0.286111 0.6602601,0.290811 1.1890206,0.824756 1.4735812,1.488407 0.049082,0.114494 0.1628484,0.187705 0.2874679,0.187705 H 22.701392 c 0.12457,0 0.238336,-0.07321 0.287467,-0.187705 0.28456,-0.663651 0.813321,-1.197547 1.473581,-1.488407 0.112895,-0.04971 0.184604,-0.162751 0.184604,-0.286111 v -5.922379 c 0,-0.12336 -0.07171,-0.236351 -0.184604,-0.286111 -0.66026,-0.290811 -1.189021,-0.824755 -1.473581,-1.488408 -0.04908,-0.114493 -0.162848,-0.187704 -0.28742,-0.187704 z"
   id="path1102"
   inkscape:connector-curvature="0" />
<path
   style="fill:#73cc00;stroke-width:0.04845235"
   d="m 24.46244,12.696036 c -0.66026,-0.290811 -1.189021,-0.824755 -1.473581,-1.488408 -0.04908,-0.114493 -0.162848,-0.187704 -0.287467,-0.187704 h -1.792835 c 0.30244,0.502742 0.755034,0.904703 1.296343,1.143136 0.112894,0.04971 0.184603,0.162752 0.184603,0.286112 v 5.922378 c 0,0.12336 -0.07171,0.236351 -0.184603,0.286112 -0.66026,0.290811 -1.18902,0.824755 -1.473581,1.488407 -0.04908,0.114493 -0.162848,0.187704 -0.287419,0.187704 H 6.2189686 c 0.066477,0.11052 0.1259277,0.225691 0.1772387,0.345271 0.049082,0.114494 0.1628483,0.187705 0.2874194,0.187705 H 22.701439 c 0.124572,0 0.238338,-0.07321 0.287469,-0.187705 0.28456,-0.663651 0.813321,-1.197547 1.473581,-1.488407 0.112894,-0.04971 0.184603,-0.162751 0.184603,-0.286111 v -5.922379 c -4.8e-5,-0.123408 -0.07176,-0.236399 -0.184652,-0.286111 z"
   id="path1104"
   inkscape:connector-curvature="0" />
<circle
   style="fill:#b6fa4c;stroke-width:0.04845235"
   cx="14.692364"
   cy="15.943411"
   r="3.7206557"
   id="circle1106" />
<path
   style="fill:#73cc00;stroke-width:0.04845235"
   d="m 14.495792,18.263599 c -0.808185,-0.01304 -1.355648,-0.449736 -1.355648,-0.769085 0,-0.156452 0.136878,-0.371532 0.299824,-0.371532 0.21508,0 0.391059,0.456227 1.055824,0.508362 v -1.531627 c -0.586564,-0.208588 -1.238345,-0.443195 -1.238345,-1.277446 0,-0.821219 0.619172,-1.14711 1.238345,-1.212278 V 13.42098 c 0,-0.0782 0.0782,-0.149911 0.189013,-0.149911 0.09778,0 0.195505,0.07171 0.195505,0.149911 v 0.175979 c 0.443194,0.01304 1.068908,0.149911 1.068908,0.469261 0,0.123844 -0.09124,0.371484 -0.28679,0.371484 -0.156404,0 -0.325842,-0.208588 -0.782118,-0.241147 v 1.323088 c 0.567038,0.208587 1.186211,0.495328 1.186211,1.381764 0,0.801692 -0.482295,1.244887 -1.186211,1.342614 v 0.221574 c 0,0.0782 -0.09778,0.149911 -0.195505,0.149911 -0.11081,0 -0.189013,-0.07171 -0.189013,-0.149911 z m 0.0391,-2.86775 v -1.18621 c -0.364992,0.04559 -0.625714,0.208539 -0.625714,0.547463 4.8e-5,0.371532 0.280297,0.508411 0.625714,0.638747 z m 0.306315,0.847287 v 1.375222 c 0.351958,-0.06517 0.573531,-0.273755 0.573531,-0.645239 4.7e-5,-0.410634 -0.254133,-0.593105 -0.573531,-0.729983 z"
   id="path1108"
   inkscape:connector-curvature="0" />
<g
   id="g1110"
   transform="matrix(0.04845235,0,0,0.04845235,0.87375406,0.73809372)">
</g>
<g
   id="g1112"
   transform="matrix(0.04845235,0,0,0.04845235,0.87375406,0.73809372)">
</g>
<g
   id="g1114"
   transform="matrix(0.04845235,0,0,0.04845235,0.87375406,0.73809372)">
</g>
<g
   id="g1116"
   transform="matrix(0.04845235,0,0,0.04845235,0.87375406,0.73809372)">
</g>
<g
   id="g1118"
   transform="matrix(0.04845235,0,0,0.04845235,0.87375406,0.73809372)">
</g>
<g
   id="g1120"
   transform="matrix(0.04845235,0,0,0.04845235,0.87375406,0.73809372)">
</g>
<g
   id="g1122"
   transform="matrix(0.04845235,0,0,0.04845235,0.87375406,0.73809372)">
</g>
<g
   id="g1124"
   transform="matrix(0.04845235,0,0,0.04845235,0.87375406,0.73809372)">
</g>
<g
   id="g1126"
   transform="matrix(0.04845235,0,0,0.04845235,0.87375406,0.73809372)">
</g>
<g
   id="g1128"
   transform="matrix(0.04845235,0,0,0.04845235,0.87375406,0.73809372)">
</g>
<g
   id="g1130"
   transform="matrix(0.04845235,0,0,0.04845235,0.87375406,0.73809372)">
</g>
<g
   id="g1132"
   transform="matrix(0.04845235,0,0,0.04845235,0.87375406,0.73809372)">
</g>
<g
   id="g1134"
   transform="matrix(0.04845235,0,0,0.04845235,0.87375406,0.73809372)">
</g>
<g
   id="g1136"
   transform="matrix(0.04845235,0,0,0.04845235,0.87375406,0.73809372)">
</g>
<g
   id="g1138"
   transform="matrix(0.04845235,0,0,0.04845235,0.87375406,0.73809372)">
</g>
</svg>