<?xml version="1.0" encoding="UTF-8" standalone="no"?>
<svg
   xmlns:dc="http://purl.org/dc/elements/1.1/"
   xmlns:cc="http://creativecommons.org/ns#"
   xmlns:rdf="http://www.w3.org/1999/02/22-rdf-syntax-ns#"
   xmlns:svg="http://www.w3.org/2000/svg"
   xmlns="http://www.w3.org/2000/svg"
   xmlns:xlink="http://www.w3.org/1999/xlink"
   xmlns:sodipodi="http://sodipodi.sourceforge.net/DTD/sodipodi-0.dtd"
   xmlns:inkscape="http://www.inkscape.org/namespaces/inkscape"
   id="Capa_1"
   enable-background="new 0 0 505.003 505.003"
   height="20"
   viewBox="0 0 19.72668 19.72668"
   width="20"
   version="1.1"
   sodipodi:docname="social.svg"
   inkscape:version="0.92.4 5da689c313, 2019-01-14">
  <metadata
     id="metadata1101">
    <rdf:RDF>
      <cc:Work
         rdf:about="">
        <dc:format>image/svg+xml</dc:format>
        <dc:type
           rdf:resource="http://purl.org/dc/dcmitype/StillImage" />
        <dc:title></dc:title>
      </cc:Work>
    </rdf:RDF>
  </metadata>
  <defs
     id="defs1099">
    <linearGradient
       inkscape:collect="always"
       id="linearGradient1652">
      <stop
         style="stop-color:#6c5353;stop-opacity:1"
         offset="0"
         id="stop1648" />
      <stop
         style="stop-color:#000000;stop-opacity:0;"
         offset="1"
         id="stop1650" />
    </linearGradient>
    <linearGradient
       inkscape:collect="always"
       xlink:href="#linearGradient1652"
       id="linearGradient1654"
       x1="5.4843049"
       y1="14.823799"
       x2="1.2157642"
       y2="16.863752"
       gradientUnits="userSpaceOnUse" />
  </defs>
  <sodipodi:namedview
     pagecolor="#ffffff"
     bordercolor="#666666"
     borderopacity="1"
     objecttolerance="10"
     gridtolerance="10"
     guidetolerance="10"
     inkscape:pageopacity="0"
     inkscape:pageshadow="2"
     inkscape:window-width="1920"
     inkscape:window-height="1036"
     id="namedview1097"
     showgrid="false"
     inkscape:zoom="8.8918332"
     inkscape:cx="-4.0907568"
     inkscape:cy="27.100652"
     inkscape:window-x="0"
     inkscape:window-y="0"
     inkscape:window-maximized="0"
     inkscape:current-layer="Capa_1" />
  <circle
     style="fill:url(#linearGradient1654);fill-opacity:1;stroke:none;stroke-width:0.98788726;stroke-miterlimit:4;stroke-dasharray:none;stroke-dashoffset:0;stroke-opacity:1"
     id="path1646"
     cx="9.8375254"
     cy="9.8430862"
     r="9.1440859" />
  <g
     id="g1094"
     transform="matrix(0.03089908,0,0,0.03089908,2.0755307,2.3175428)">
    <g
       id="g1086">
      <path
         d="M 392.934,52.377 H 113.819 l 3.767,-28.56 C 118.812,14.476 126.763,7.5 136.18,7.5 h 234.391 c 9.418,0 17.368,6.976 18.605,16.317 z"
         id="path1066"
         inkscape:connector-curvature="0"
         style="fill:#465a61" />
      <path
         d="M 356.292,52.377 H 113.819 l 3.767,-28.56 C 118.812,14.476 126.763,7.5 136.18,7.5 h 197.74 c 9.418,0 17.368,6.976 18.605,16.317 z"
         id="path1068"
         inkscape:connector-curvature="0"
         style="fill:#596c76" />
      <path
         d="M 425.359,134.618 H 81.394 l 6.034,-68.005 c 0.712,-8.06 7.458,-14.236 15.55,-14.236 h 300.808 c 8.082,0 14.827,6.176 15.539,14.236 z"
         id="path1070"
         inkscape:connector-curvature="0"
         style="fill:#465a61" />
      <path
         d="M 388.707,134.618 H 81.394 l 6.034,-68.005 c 0.712,-8.06 7.458,-14.236 15.55,-14.236 h 264.156 c 8.082,0 14.827,6.176 15.55,14.236 z"
         id="path1072"
         inkscape:connector-curvature="0"
         style="fill:#596c76" />
      <path
         d="m 408.886,134.613 -37.92,347.63 c -0.95,8.68 -8.28,15.26 -17.01,15.26 h -201.15 c -8.74,0 -16.07,-6.58 -17.02,-15.26 l -37.92,-347.63 z"
         id="path1074"
         inkscape:connector-curvature="0"
         style="fill:#fedba6" />
      <path
         d="m 372.866,134.613 -37.92,347.63 c -0.94,8.68 -8.28,15.26 -17.01,15.26 h -165.13 c -8.74,0 -16.07,-6.58 -17.02,-15.26 l -37.92,-347.63 z"
         id="path1076"
         inkscape:connector-curvature="0"
         style="fill:#ffefd2" />
      <path
         d="m 401.618,201.341 -20.369,186.558 -3.176,29.151 H 128.679 l -3.176,-29.151 -20.368,-186.558 z"
         id="path1078"
         inkscape:connector-curvature="0"
         style="fill:#008b81" />
      <path
         d="m 365.589,201.341 -20.357,186.558 -3.176,29.151 H 128.679 l -3.176,-29.151 -20.368,-186.558 z"
         id="path1080"
         inkscape:connector-curvature="0"
         style="fill:#01998d" />
      <path
         d="M 299.501,330.232 277.654,353.7 c -9.472,10.184 -22.329,15.331 -35.207,15.331 -5.727,0 -11.466,-1.019 -16.908,-3.066 -5.716,-2.135 -11.115,-5.421 -15.857,-9.834 -19.449,-18.091 -20.533,-48.534 -2.431,-67.972 l 21.847,-23.468 c 5.245,-5.64 11.542,-9.735 18.299,-12.254 16.536,-6.198 35.875,-3.022 49.673,9.823 19.449,18.102 20.533,48.534 2.431,67.972 z"
         id="path1082"
         inkscape:connector-curvature="0"
         style="fill:#883f2e" />
      <path
         d="M 265.663,330.232 243.816,353.7 c -5.245,5.64 -11.531,9.735 -18.277,12.265 -5.716,-2.135 -11.115,-5.421 -15.857,-9.834 -19.449,-18.091 -20.533,-48.534 -2.431,-67.972 l 21.847,-23.468 c 5.245,-5.64 11.542,-9.735 18.299,-12.254 5.705,2.136 11.093,5.41 15.835,9.823 19.449,18.102 20.533,48.534 2.431,67.972 z"
         id="path1084"
         inkscape:connector-curvature="0"
         style="fill:#a44f3e" />
    </g>
    <g
       id="g1092">
      <path
         d="M 431.955,133.954 425.921,65.953 C 424.86,53.937 414.968,44.877 402.911,44.877 h -4.274 L 395.738,22.833 C 394.013,9.815 382.818,0 369.697,0 H 135.305 c -13.13,0 -24.32,9.819 -26.03,22.837 l -2.907,22.04 h -4.266 c -12.063,0 -21.96,9.061 -23.021,21.073 l -6.034,68.004 c -0.868,9.787 11.124,8.163 17.218,8.163 l 37.19,340.941 c 1.369,12.511 11.891,21.944 24.476,21.944 h 120.753 c 4.142,0 7.5,-3.357 7.5,-7.5 0,-4.143 -3.358,-7.5 -7.5,-7.5 H 151.931 c -4.918,0 -9.03,-3.687 -9.564,-8.573 l -6.205,-56.881 H 368.84 l -6.204,56.879 c -0.535,4.889 -4.642,8.575 -9.554,8.575 h -41.558 c -4.142,0 -7.5,3.357 -7.5,7.5 0,4.143 3.358,7.5 7.5,7.5 h 41.558 c 12.579,0 23.097,-9.434 24.465,-21.946 l 37.191,-340.939 c 6.093,0 18.085,1.624 17.217,-8.163 z m -61.48,275.595 H 134.53 L 112.634,208.846 H 392.37 Z M 394.006,193.846 H 110.997 l -5.643,-51.729 H 399.648 Z M 88.714,127.117 94.024,67.273 c 0.373,-4.217 3.846,-7.396 8.08,-7.396 h 58.178 c 4.142,0 7.5,-3.357 7.5,-7.5 0,-4.143 -3.358,-7.5 -7.5,-7.5 h -38.783 l 2.649,-20.083 C 124.881,19.21 129.678,15 135.306,15 h 234.392 c 5.628,0 10.43,4.214 11.169,9.795 l 2.641,20.082 H 200.33 c -4.142,0 -7.5,3.357 -7.5,7.5 0,4.143 3.358,7.5 7.5,7.5 h 202.581 c 4.227,0 7.696,3.18 8.068,7.399 l 5.31,59.841 z"
         id="path1088"
         inkscape:connector-curvature="0" />
      <path
         d="m 301.308,256.771 c -10.87,-10.119 -25.027,-15.411 -39.869,-14.868 -14.84,0.53 -28.586,6.809 -38.705,17.678 l -21.848,23.469 c -10.119,10.869 -15.399,25.028 -14.869,39.869 0.531,14.836 6.806,28.577 17.669,38.695 0.003,0.003 0.006,0.006 0.009,0.009 0.003,0.003 0.007,0.006 0.01,0.009 10.691,9.949 24.287,14.87 37.854,14.87 14.906,0 29.776,-5.943 40.71,-17.688 l 21.848,-23.469 c 20.889,-22.437 19.629,-57.686 -2.809,-78.574 z m -8.169,68.354 -21.848,23.469 c -13.507,14.507 -35.229,16.879 -51.404,6.644 l 33.44,-35.919 c 2.823,-3.031 2.653,-7.777 -0.379,-10.6 -3.031,-2.822 -7.777,-2.652 -10.6,0.379 l -33.447,35.927 c -4.834,-6.528 -7.597,-14.348 -7.893,-22.642 -0.387,-10.837 3.468,-21.176 10.857,-29.112 l 21.848,-23.469 c 7.389,-7.937 17.426,-12.521 28.262,-12.908 0.498,-0.018 0.992,-0.026 1.487,-0.026 7.761,0 15.219,2.182 21.666,6.278 l -18.6,19.979 c -2.823,3.031 -2.653,7.777 0.379,10.6 1.445,1.346 3.279,2.011 5.109,2.011 2.009,0 4.014,-0.803 5.491,-2.39 l 18.589,-19.968 c 11.364,15.402 10.55,37.239 -2.957,51.747 z"
         id="path1090"
         inkscape:connector-curvature="0" />
    </g>
  </g>
</svg>
