<?xml version="1.0" encoding="UTF-8" standalone="no"?>
<svg
   xmlns:dc="http://purl.org/dc/elements/1.1/"
   xmlns:cc="http://creativecommons.org/ns#"
   xmlns:rdf="http://www.w3.org/1999/02/22-rdf-syntax-ns#"
   xmlns:svg="http://www.w3.org/2000/svg"
   xmlns="http://www.w3.org/2000/svg"
   xmlns:sodipodi="http://sodipodi.sourceforge.net/DTD/sodipodi-0.dtd"
   xmlns:inkscape="http://www.inkscape.org/namespaces/inkscape"
   id="Capa_1"
   enable-background="new 0 0 497 497"
   height="20pt"
   viewBox="0 0 25.885417 25.885417"
   width="20pt"
   version="1.1"
   sodipodi:docname="work.svg"
   inkscape:version="0.92.4 5da689c313, 2019-01-14">
  <metadata
     id="metadata1188">
    <rdf:RDF>
      <cc:Work
         rdf:about="">
        <dc:format>image/svg+xml</dc:format>
        <dc:type
           rdf:resource="http://purl.org/dc/dcmitype/StillImage" />
        <dc:title></dc:title>
      </cc:Work>
    </rdf:RDF>
  </metadata>
  <defs
     id="defs1186" />
  <sodipodi:namedview
     pagecolor="#ffffff"
     bordercolor="#666666"
     borderopacity="1"
     objecttolerance="10"
     gridtolerance="10"
     guidetolerance="10"
     inkscape:pageopacity="0"
     inkscape:pageshadow="2"
     inkscape:window-width="1920"
     inkscape:window-height="1036"
     id="namedview1184"
     showgrid="false"
     units="pt"
     inkscape:zoom="17.783666"
     inkscape:cx="5.5771413"
     inkscape:cy="7.1899412"
     inkscape:window-x="0"
     inkscape:window-y="0"
     inkscape:window-maximized="0"
     inkscape:current-layer="Capa_1" />
  <rect
     y="2.3245366"
     x="2.2573385"
     height="21.358126"
     width="21.358126"
     id="rect1735"
     style="fill:#f9f9f9;fill-opacity:1;stroke:none;stroke-width:0.95105982;stroke-miterlimit:4;stroke-dasharray:none;stroke-dashoffset:0;stroke-opacity:1" />
  <g
     id="g1181"
     transform="matrix(0.03934224,0,0,0.03934224,3.1112864,3.0001485)">
    <path
       d="m 275.57,401 -84.14,30 -3.19,11.15 C 183.71,458.02 166.5,471 150,471 v 7.5 h 174.5 z"
       id="path1161"
       inkscape:connector-curvature="0"
       style="fill:#adaca7" />
    <path
       d="M 308.76,442.15 297,401 248.5,371 200,401 l -8.57,30 h 84.14 l 3.19,11.15 C 283.29,458.02 300.5,471 317,471 l 15,7.5 15,-7.5 c -16.5,0 -33.71,-12.98 -38.24,-28.85 z"
       id="path1163"
       inkscape:connector-curvature="0"
       style="fill:#8f8f8b" />
    <path
       d="m 437,401 h 30 c 16.5,0 30,-13.5 30,-30 v -60 l -60,-60 z"
       id="path1165"
       inkscape:connector-curvature="0"
       style="fill:#adaca7" />
    <path
       d="m 0,371 c 0,16.5 13.5,30 30,30 h 407 c 16.5,0 30,-13.5 30,-30 V 191 L 0,311 Z"
       id="path1167"
       inkscape:connector-curvature="0"
       style="fill:#cbc9c2" />
    <path
       d="m 467,11 h -30 l 30,300 h 30 V 41 C 497,24.5 483.5,11 467,11 Z"
       id="path1169"
       inkscape:connector-curvature="0"
       style="fill:#404242" />
    <path
       d="M 467,41 C 467,24.5 453.5,11 437,11 H 30 C 13.5,11 0,24.5 0,41 V 311 H 467 V 281 L 248.5,160.987 Z"
       id="path1171"
       inkscape:connector-curvature="0"
       style="fill:#565959" />
    <path
       d="m 467,40.995 -29.994,-0.021 c 0,0.005 -188.506,120.013 -188.506,120.013 0,0 188.502,120.011 188.5,120.013 0,0 29.999,-0.02 29.999,-0.02 10e-4,0 -0.002,-239.981 10e-4,-239.985 z"
       id="path1173"
       inkscape:connector-curvature="0"
       style="fill:#4b88d5" />
    <path
       d="M 437,40.995 30.088,40.973 C 30.063,40.985 30.042,280.995 30,281 c 0,0 406.98,-0.02 406.99,-0.02 0.005,0 -0.032,-239.981 0.01,-239.985 z"
       id="path1175"
       inkscape:connector-curvature="0"
       style="fill:#69a7ff" />
    <circle
       cx="248.5"
       cy="356"
       r="15"
       id="circle1177"
       style="fill:#ffffff" />
    <path
       d="m 403.5,486 h -310 c -4.142,0 -7.5,-3.357 -7.5,-7.5 0,-4.143 3.358,-7.5 7.5,-7.5 h 310 c 4.142,0 7.5,3.357 7.5,7.5 0,4.143 -3.358,7.5 -7.5,7.5 z"
       id="path1179"
       inkscape:connector-curvature="0"
       style="fill:#8f8f8b" />
  </g>
</svg>
