<?xml version="1.0" encoding="UTF-8" standalone="no"?>
<svg
   xmlns:dc="http://purl.org/dc/elements/1.1/"
   xmlns:cc="http://creativecommons.org/ns#"
   xmlns:rdf="http://www.w3.org/1999/02/22-rdf-syntax-ns#"
   xmlns:svg="http://www.w3.org/2000/svg"
   xmlns="http://www.w3.org/2000/svg"
   xmlns:xlink="http://www.w3.org/1999/xlink"
   xmlns:sodipodi="http://sodipodi.sourceforge.net/DTD/sodipodi-0.dtd"
   xmlns:inkscape="http://www.inkscape.org/namespaces/inkscape"
   height="20pt"
   viewBox="0 0 3.125 3.125"
   width="20pt"
   version="1.1"
   id="svg1045"
   sodipodi:docname="writing.svg"
   inkscape:version="0.92.4 5da689c313, 2019-01-14">
  <metadata
     id="metadata1051">
    <rdf:RDF>
      <cc:Work
         rdf:about="">
        <dc:format>image/svg+xml</dc:format>
        <dc:type
           rdf:resource="http://purl.org/dc/dcmitype/StillImage" />
        <dc:title></dc:title>
      </cc:Work>
    </rdf:RDF>
  </metadata>
  <defs
     id="defs1049">
    <linearGradient
       inkscape:collect="always"
       id="linearGradient1071">
      <stop
         style="stop-color:#ececec;stop-opacity:1"
         offset="0"
         id="stop1067" />
      <stop
         style="stop-color:#f2f2f2;stop-opacity:0;"
         offset="1"
         id="stop1069" />
    </linearGradient>
    <linearGradient
       inkscape:collect="always"
       xlink:href="#linearGradient1071"
       id="linearGradient1073"
       x1="1.1688401"
       y1="1.6826017"
       x2="1.0444953"
       y2="1.0670954"
       gradientUnits="userSpaceOnUse" />
  </defs>
  <sodipodi:namedview
     pagecolor="#ffffff"
     bordercolor="#666666"
     borderopacity="1"
     objecttolerance="10"
     gridtolerance="10"
     guidetolerance="10"
     inkscape:pageopacity="0"
     inkscape:pageshadow="2"
     inkscape:window-width="1920"
     inkscape:window-height="1036"
     id="namedview1047"
     showgrid="false"
     units="pt"
     inkscape:zoom="9.4244076"
     inkscape:cx="0.8612809"
     inkscape:cy="17.067546"
     inkscape:window-x="0"
     inkscape:window-y="0"
     inkscape:window-maximized="0"
     inkscape:current-layer="svg1045" />
  <circle
     style="fill:#ffffff;fill-opacity:1;stroke:#ececec;stroke-width:0.11492679;stroke-miterlimit:4;stroke-dasharray:none;stroke-dashoffset:0;stroke-opacity:1"
     id="path1053"
     cx="1.5729603"
     cy="1.5706912"
     r="1.46105" />
  <path
     style="fill:url(#linearGradient1073);fill-opacity:1;stroke:none;stroke-width:0.1171875px;stroke-linecap:butt;stroke-linejoin:miter;stroke-opacity:1"
     d="m 2.4060697,0.36454789 c 0,0 -0.5160305,0.24247214 -0.9947575,1.16262281 C 0.93258518,2.4473214 1.007192,2.9136139 1.007192,2.9136139 c 0,0 1.2615279,0.6322294 1.9149081,-0.770937 C 3.4390654,1.0324684 2.4060697,0.36454789 2.4060697,0.36454789 Z"
     id="path1057"
     inkscape:connector-curvature="0"
     sodipodi:nodetypes="cscsc" />
  <g
     id="Page-1"
     style="fill:none;fill-rule:evenodd"
     transform="matrix(0.04034831,0,0,0.04034831,0.397903,0.36215291)">
    <g
       id="018---Poem"
       style="fill:#000000;fill-rule:nonzero">
      <path
         id="Shape"
         d="M 59.533,4.684 C 59.223944,4.4892465 58.833285,4.478512 58.514,4.656 55.887566,6.034986 52.9399,6.6858412 49.977,6.541 49.735388,2.8641772 46.68475,0.00417716 43,0 H 7 C 3.1358343,0.00440864 0.00440864,3.1358343 0,7 v 46 c 0.00440864,3.864166 3.1358343,6.995591 7,7 h 36 c 3.650527,-0.02811 6.666512,-2.85696 6.928096,-6.498211 C 50.189681,49.860537 47.609022,46.629635 44,46.08 V 23.3 c 2.086,-1.791 4.746,-2.638 7.512,-3.519 l 0.714,-0.228 C 59.185,17.319 59.968,6.07 60,5.592 60.022225,5.2266787 59.8431,4.8784008 59.533,4.684 Z M 43,2 c 2.551121,0.00801 4.6852,1.9393348 4.947,4.477 -0.745,-0.039 -1.5,-0.09 -2.254,-0.143 -2.802293,-0.2959494 -5.629174,-0.2717938 -8.426,0.072 -0.025,0 -0.047,0.006 -0.071,0.011 -3.529571,0.5529539 -6.778688,2.2532488 -9.245,4.838 -0.247,0.249 -0.482,0.5 -0.711,0.745 H 11.9 c 1.346053,-1.315393 2.104889,-3.1179488 2.104889,-5 0,-1.8820512 -0.758836,-3.6846072 -2.104889,-5 z M 2,53 V 7 C 2,4.2385762 4.2385762,2 7,2 c 2.7614238,0 5,2.2385762 5,5 0,2.7614238 -2.2385762,5 -5,5 -0.5522848,0 -1,0.447715 -1,1 0,0.552285 0.4477152,1 1,1 H 25.592 C 20.434,21.01 22.214,27.369 23.286,29.88 21.455064,33.034019 20.109003,36.445523 19.293,40 H 9 c -0.5522847,0 -1,0.447715 -1,1 0,0.552285 0.4477153,1 1,1 h 11.117 c 0.212502,9.5e-5 0.419511,-0.06751 0.591,-0.193 l 4.564,-3.341 c 0.255579,-0.186748 0.40765,-0.483473 0.41,-0.8 0.05748,-1.576366 0.224546,-3.146823 0.5,-4.7 1.287953,0.607717 2.696955,0.915434 4.121,0.9 0.754673,-9.87e-4 1.507378,-0.07703 2.247,-0.227 2.94494,-0.624523 5.565912,-2.290058 7.382,-4.691 0.019,-0.019 0.029,-0.044 0.047,-0.064 0.599598,-0.771042 1.127145,-1.595502 1.576,-2.463 0.142,-0.277 0.293,-0.539 0.45,-0.791 V 46 H 7 c -0.5522848,0 -1,0.447715 -1,1 0,0.552285 0.4477152,1 1,1 2.7614238,0 5,2.238576 5,5 0,2.761424 -2.2385762,5 -5,5 C 4.2385762,58 2,55.761424 2,53 Z M 24.265,32.259 c -0.296885,1.612593 -0.485639,3.243228 -0.565,4.881 l -1.972,1.443 c 0.642498,-2.183929 1.492018,-4.301535 2.537,-6.324 z M 48,53 c -0.0033,2.760053 -2.239947,4.996694 -5,5 H 11.9 c 1.346053,-1.315393 2.104889,-3.117949 2.104889,-5 0,-1.882051 -0.758836,-3.684607 -2.104889,-5 H 43 c 2.760053,0.0033 4.996694,2.239947 5,5 z m 3.613,-35.352 -0.708,0.227 c -2.039534,0.579434 -4.01603,1.361323 -5.9,2.334 -0.849227,-0.03245 -1.661397,-0.356262 -2.3,-0.917 -0.252944,-0.252587 -0.621427,-0.351042 -0.966646,-0.25828 -0.345219,0.09276 -0.614725,0.362651 -0.707,0.708 -0.09227,0.345349 0.0067,0.713693 0.259646,0.96628 0.437095,0.426765 0.951637,0.766173 1.516,1 -1.260397,1.049415 -2.294039,2.34436 -3.038,3.806 -0.310863,0.603022 -0.66478,1.182857 -1.059,1.735 -1.817196,0.007 -3.614024,-0.382705 -5.265,-1.142 -0.494295,-0.246871 -1.095129,-0.0463 -1.342,0.448 -0.246871,0.494295 -0.0463,1.095129 0.448,1.342 1.412702,0.676423 2.933694,1.098225 4.493,1.246 -1.372505,1.276528 -3.066243,2.155889 -4.9,2.544 -1.88094,0.435617 -3.856366,0.165157 -5.551,-0.76 0.352351,-1.542013 0.845762,-3.048356 1.474,-4.5 C 35.784,16.9 41.388,14.689 51,13.356 c 0.354405,-0.04852 0.6559,-0.282654 0.790668,-0.614007 0.134768,-0.331354 0.08228,-0.709457 -0.137649,-0.991572 C 51.433091,11.468306 51.079221,11.325152 50.725,11.375 c -9.973,1.384 -16.151,3.813 -24.274,13.877 -0.01,0.011 -0.018,0.022 -0.027,0.034 -0.653,0.81 -1.24,1.623 -1.785,2.432 -1.15616,-4.099019 -0.362148,-8.502041 2.153,-11.939 0.04472,0.494255 0.125606,0.984568 0.242,1.467 0.135862,0.535716 0.680284,0.859862 1.216,0.724 0.535716,-0.135862 0.859862,-0.680284 0.724,-1.216 -0.272532,-1.153704 -0.321077,-2.348996 -0.143,-3.521 0.176,-0.189 0.354,-0.378 0.542,-0.568 C 31.076037,10.890677 33.201827,9.5779724 35.551,8.85 35.185931,9.8600698 34.999481,10.925981 35,12 c 0,0.552285 0.447715,1 1,1 0.552285,0 1,-0.447715 1,-1 -0.01411,-1.298198 0.336529,-2.5742819 1.012,-3.683 1.66693,-0.1992818 3.348559,-0.2461424 5.024,-0.14 -0.366402,0.4202907 -0.680679,0.8833128 -0.936,1.379 -0.2452,0.494848 -0.04284,1.094776 0.452,1.34 0.139086,0.06939 0.292569,0.105019 0.448,0.104 0.381497,0.0015 0.730617,-0.214165 0.9,-0.556 0.443687,-0.838909 1.082237,-1.5590781 1.862,-2.1 3.957,0.272 8.026,0.521 12.029,-1.122 -0.484,3.035 -1.96,9.078 -6.178,10.426 z"
         inkscape:connector-curvature="0" />
      <path
         id="path1035"
         d="m 9,37 h 8 c 0.552285,0 1,-0.447715 1,-1 0,-0.552285 -0.447715,-1 -1,-1 H 9 c -0.5522847,0 -1,0.447715 -1,1 0,0.552285 0.4477153,1 1,1 z"
         inkscape:connector-curvature="0" />
      <path
         id="path1037"
         d="m 9,32 h 10 c 0.552285,0 1,-0.447715 1,-1 0,-0.552285 -0.447715,-1 -1,-1 H 9 c -0.5522847,0 -1,0.447715 -1,1 0,0.552285 0.4477153,1 1,1 z"
         inkscape:connector-curvature="0" />
      <path
         id="path1039"
         d="m 9,27 h 10 c 0.552285,0 1,-0.447715 1,-1 0,-0.552285 -0.447715,-1 -1,-1 H 9 c -0.5522847,0 -1,0.447715 -1,1 0,0.552285 0.4477153,1 1,1 z"
         inkscape:connector-curvature="0" />
      <path
         id="path1041"
         d="m 9,22 h 10 c 0.552285,0 1,-0.447715 1,-1 0,-0.552285 -0.447715,-1 -1,-1 H 9 c -0.5522847,0 -1,0.447715 -1,1 0,0.552285 0.4477153,1 1,1 z"
         inkscape:connector-curvature="0" />
    </g>
  </g>
</svg>
